<svg width="32" height="32" viewBox="0 0 32 32" xmlns="http://www.w3.org/2000/svg">
  <defs>
    <linearGradient id="grad" x1="0%" y1="0%" x2="100%" y2="100%">
      <stop offset="0%" style="stop-color:#4c6ef5;stop-opacity:1" />
      <stop offset="100%" style="stop-color:#7950f2;stop-opacity:1" />
    </linearGradient>
  </defs>
  
  <!-- Background -->
  <rect width="32" height="32" rx="6" fill="url(#grad)"/>
  
  <!-- Graduation Cap -->
  <g transform="translate(16, 10)">
    <polygon points="-10,0 0,-3 10,0 0,3" fill="#fff"/>
    <ellipse cx="0" cy="0" rx="2" ry="1" fill="#ffd43b"/>
    <line x1="0" y1="0" x2="4" y2="-3" stroke="#ffd43b" stroke-width="0.8"/>
    <circle cx="4" cy="-3" r="1" fill="#ffd43b"/>
  </g>
  
  <!-- Book -->
  <g transform="translate(16, 20)">
    <path d="M -6 0 L -6 6 Q -6 7, -5 7 L 0 7 L 0 0 Z" fill="#fff" opacity="0.9"/>
    <path d="M 6 0 L 6 6 Q 6 7, 5 7 L 0 7 L 0 0 Z" fill="#fff" opacity="0.9"/>
    <rect x="-0.5" y="0" width="1" height="7" fill="#e9ecef"/>
  </g>
</svg>
